<mxfile host="app.diagrams.net" modified="2022-09-08T03:16:04.580Z" agent="5.0 (Windows NT 10.0; Win64; x64) AppleWebKit/537.36 (KHTML, like Gecko) Chrome/105.0.0.0 Safari/537.36" etag="rsb5CjycIfCqpOVneJbh" version="20.2.7" type="github">
  <diagram id="NncTEPhKTT7OVb3uIwc3" name="第 1 页">
    <mxGraphModel dx="2230" dy="663" grid="1" gridSize="10" guides="1" tooltips="1" connect="1" arrows="1" fold="1" page="1" pageScale="1" pageWidth="827" pageHeight="1169" math="0" shadow="0">
      <root>
        <mxCell id="0" />
        <mxCell id="1" parent="0" />
        <mxCell id="KBg-SO3lWjchXB5jgZCS-3" value="" style="edgeStyle=orthogonalEdgeStyle;rounded=0;orthogonalLoop=1;jettySize=auto;html=1;" edge="1" parent="1">
          <mxGeometry relative="1" as="geometry">
            <mxPoint x="200" y="275" as="sourcePoint" />
            <mxPoint x="280" y="130" as="targetPoint" />
            <Array as="points">
              <mxPoint x="200" y="280" />
              <mxPoint x="220" y="280" />
              <mxPoint x="220" y="130" />
            </Array>
          </mxGeometry>
        </mxCell>
        <mxCell id="KBg-SO3lWjchXB5jgZCS-9" value="" style="edgeStyle=orthogonalEdgeStyle;rounded=0;orthogonalLoop=1;jettySize=auto;html=1;exitX=1;exitY=0.5;exitDx=0;exitDy=0;" edge="1" parent="1" source="KBg-SO3lWjchXB5jgZCS-6" target="KBg-SO3lWjchXB5jgZCS-8">
          <mxGeometry relative="1" as="geometry">
            <Array as="points">
              <mxPoint x="420" y="130" />
              <mxPoint x="420" y="70" />
            </Array>
          </mxGeometry>
        </mxCell>
        <mxCell id="KBg-SO3lWjchXB5jgZCS-11" value="" style="edgeStyle=orthogonalEdgeStyle;rounded=0;orthogonalLoop=1;jettySize=auto;html=1;" edge="1" parent="1" source="KBg-SO3lWjchXB5jgZCS-6" target="KBg-SO3lWjchXB5jgZCS-10">
          <mxGeometry relative="1" as="geometry" />
        </mxCell>
        <mxCell id="KBg-SO3lWjchXB5jgZCS-6" value="实时性" style="ellipse;whiteSpace=wrap;html=1;" vertex="1" parent="1">
          <mxGeometry x="280" y="100" width="120" height="60" as="geometry" />
        </mxCell>
        <mxCell id="KBg-SO3lWjchXB5jgZCS-15" value="" style="edgeStyle=orthogonalEdgeStyle;rounded=0;orthogonalLoop=1;jettySize=auto;html=1;" edge="1" parent="1" source="KBg-SO3lWjchXB5jgZCS-7" target="KBg-SO3lWjchXB5jgZCS-14">
          <mxGeometry relative="1" as="geometry" />
        </mxCell>
        <mxCell id="KBg-SO3lWjchXB5jgZCS-26" value="" style="edgeStyle=orthogonalEdgeStyle;rounded=0;orthogonalLoop=1;jettySize=auto;html=1;" edge="1" parent="1" source="KBg-SO3lWjchXB5jgZCS-7" target="KBg-SO3lWjchXB5jgZCS-25">
          <mxGeometry relative="1" as="geometry" />
        </mxCell>
        <mxCell id="KBg-SO3lWjchXB5jgZCS-7" value="功能特性" style="shape=process;whiteSpace=wrap;html=1;backgroundOutline=1;" vertex="1" parent="1">
          <mxGeometry x="80" y="250" width="120" height="60" as="geometry" />
        </mxCell>
        <mxCell id="KBg-SO3lWjchXB5jgZCS-8" value="实时监测" style="rounded=0;whiteSpace=wrap;html=1;" vertex="1" parent="1">
          <mxGeometry x="480" y="50" width="120" height="40" as="geometry" />
        </mxCell>
        <mxCell id="KBg-SO3lWjchXB5jgZCS-10" value="实时查询" style="rounded=0;whiteSpace=wrap;html=1;" vertex="1" parent="1">
          <mxGeometry x="480" y="110" width="120" height="40" as="geometry" />
        </mxCell>
        <mxCell id="KBg-SO3lWjchXB5jgZCS-12" value="实时预警" style="rounded=0;whiteSpace=wrap;html=1;" vertex="1" parent="1">
          <mxGeometry x="480" y="170" width="120" height="40" as="geometry" />
        </mxCell>
        <mxCell id="KBg-SO3lWjchXB5jgZCS-13" value="" style="endArrow=classic;html=1;rounded=0;entryX=0;entryY=0.5;entryDx=0;entryDy=0;" edge="1" parent="1" target="KBg-SO3lWjchXB5jgZCS-12">
          <mxGeometry width="50" height="50" relative="1" as="geometry">
            <mxPoint x="420" y="130" as="sourcePoint" />
            <mxPoint x="410" y="220" as="targetPoint" />
            <Array as="points">
              <mxPoint x="420" y="190" />
            </Array>
          </mxGeometry>
        </mxCell>
        <mxCell id="KBg-SO3lWjchXB5jgZCS-14" value="智能分析" style="ellipse;whiteSpace=wrap;html=1;" vertex="1" parent="1">
          <mxGeometry x="280" y="250" width="120" height="60" as="geometry" />
        </mxCell>
        <mxCell id="KBg-SO3lWjchXB5jgZCS-16" value="在树莓派中嵌入深度学习模型，利用终端智能实现对病人病情的自动分析。智能分析是系统全自动监测的基石。神经网络的稳定性可以确保病情分析的准确性与实时性。神经网络的实用性保证了系统的可拓展性与可维护性，神经网络的黑盒属性保证了系统分析过程的安全性，神经网络的自行性可以实现自动监测分析，将医生彻底从繁杂的监护工作中解放出来，同时可以保证病人的生命安全。" style="text;html=1;strokeColor=none;fillColor=none;align=left;verticalAlign=middle;whiteSpace=wrap;rounded=0;" vertex="1" parent="1">
          <mxGeometry x="420" y="230" width="310" height="120" as="geometry" />
        </mxCell>
        <mxCell id="KBg-SO3lWjchXB5jgZCS-17" value="多渠道" style="ellipse;whiteSpace=wrap;html=1;" vertex="1" parent="1">
          <mxGeometry x="280" y="400" width="120" height="60" as="geometry" />
        </mxCell>
        <mxCell id="KBg-SO3lWjchXB5jgZCS-18" value="" style="endArrow=classic;html=1;rounded=0;entryX=0;entryY=0.5;entryDx=0;entryDy=0;" edge="1" parent="1" target="KBg-SO3lWjchXB5jgZCS-17">
          <mxGeometry width="50" height="50" relative="1" as="geometry">
            <mxPoint x="220" y="280" as="sourcePoint" />
            <mxPoint x="180" y="400" as="targetPoint" />
            <Array as="points">
              <mxPoint x="220" y="430" />
            </Array>
          </mxGeometry>
        </mxCell>
        <mxCell id="KBg-SO3lWjchXB5jgZCS-19" value="APP" style="rounded=0;whiteSpace=wrap;html=1;" vertex="1" parent="1">
          <mxGeometry x="480" y="370" width="120" height="40" as="geometry" />
        </mxCell>
        <mxCell id="KBg-SO3lWjchXB5jgZCS-20" value="" style="endArrow=classic;html=1;rounded=0;exitX=1;exitY=0.5;exitDx=0;exitDy=0;entryX=0;entryY=0.5;entryDx=0;entryDy=0;" edge="1" parent="1" source="KBg-SO3lWjchXB5jgZCS-17" target="KBg-SO3lWjchXB5jgZCS-19">
          <mxGeometry width="50" height="50" relative="1" as="geometry">
            <mxPoint x="390" y="410" as="sourcePoint" />
            <mxPoint x="440" y="360" as="targetPoint" />
            <Array as="points">
              <mxPoint x="420" y="430" />
              <mxPoint x="420" y="390" />
            </Array>
          </mxGeometry>
        </mxCell>
        <mxCell id="KBg-SO3lWjchXB5jgZCS-21" value="短信透传" style="rounded=0;whiteSpace=wrap;html=1;" vertex="1" parent="1">
          <mxGeometry x="480" y="450" width="120" height="40" as="geometry" />
        </mxCell>
        <mxCell id="KBg-SO3lWjchXB5jgZCS-22" value="" style="endArrow=classic;html=1;rounded=0;entryX=0;entryY=0.5;entryDx=0;entryDy=0;" edge="1" parent="1" target="KBg-SO3lWjchXB5jgZCS-21">
          <mxGeometry width="50" height="50" relative="1" as="geometry">
            <mxPoint x="420" y="430" as="sourcePoint" />
            <mxPoint x="360" y="480" as="targetPoint" />
            <Array as="points">
              <mxPoint x="420" y="470" />
            </Array>
          </mxGeometry>
        </mxCell>
        <mxCell id="KBg-SO3lWjchXB5jgZCS-23" value="多方保证信息可以及时传达给医生" style="text;html=1;strokeColor=none;fillColor=none;align=left;verticalAlign=middle;whiteSpace=wrap;rounded=0;" vertex="1" parent="1">
          <mxGeometry x="620" y="415" width="100" height="30" as="geometry" />
        </mxCell>
        <mxCell id="KBg-SO3lWjchXB5jgZCS-28" value="" style="edgeStyle=orthogonalEdgeStyle;rounded=0;orthogonalLoop=1;jettySize=auto;html=1;entryX=1;entryY=0.5;entryDx=0;entryDy=0;" edge="1" parent="1" source="KBg-SO3lWjchXB5jgZCS-25" target="KBg-SO3lWjchXB5jgZCS-27">
          <mxGeometry relative="1" as="geometry">
            <Array as="points">
              <mxPoint x="-150" y="280" />
              <mxPoint x="-150" y="250" />
            </Array>
          </mxGeometry>
        </mxCell>
        <mxCell id="KBg-SO3lWjchXB5jgZCS-25" value="可拓展性" style="ellipse;whiteSpace=wrap;html=1;" vertex="1" parent="1">
          <mxGeometry x="-120" y="250" width="120" height="60" as="geometry" />
        </mxCell>
        <mxCell id="KBg-SO3lWjchXB5jgZCS-27" value="伸缩性好" style="rounded=0;whiteSpace=wrap;html=1;" vertex="1" parent="1">
          <mxGeometry x="-290" y="230" width="120" height="40" as="geometry" />
        </mxCell>
        <mxCell id="KBg-SO3lWjchXB5jgZCS-29" value="与现有医疗监测设备兼容，可以按照医院要求增删医疗设备，具有即插即用，伸缩性好的特性" style="text;html=1;strokeColor=none;fillColor=none;align=left;verticalAlign=middle;whiteSpace=wrap;rounded=0;" vertex="1" parent="1">
          <mxGeometry x="-518" y="235" width="210" height="30" as="geometry" />
        </mxCell>
        <mxCell id="KBg-SO3lWjchXB5jgZCS-30" value="易升级" style="rounded=0;whiteSpace=wrap;html=1;" vertex="1" parent="1">
          <mxGeometry x="-290" y="300" width="120" height="40" as="geometry" />
        </mxCell>
        <mxCell id="KBg-SO3lWjchXB5jgZCS-32" value="" style="endArrow=classic;html=1;rounded=0;entryX=1;entryY=0.5;entryDx=0;entryDy=0;" edge="1" parent="1" target="KBg-SO3lWjchXB5jgZCS-30">
          <mxGeometry width="50" height="50" relative="1" as="geometry">
            <mxPoint x="-150" y="280" as="sourcePoint" />
            <mxPoint x="-80" y="340" as="targetPoint" />
            <Array as="points">
              <mxPoint x="-150" y="320" />
            </Array>
          </mxGeometry>
        </mxCell>
        <mxCell id="KBg-SO3lWjchXB5jgZCS-33" value="软件升级不需要重写内核，只需要按照要求重新训练神经网络" style="text;html=1;strokeColor=none;fillColor=none;align=left;verticalAlign=middle;whiteSpace=wrap;rounded=0;" vertex="1" parent="1">
          <mxGeometry x="-520" y="305" width="212" height="30" as="geometry" />
        </mxCell>
        <mxCell id="KBg-SO3lWjchXB5jgZCS-37" value="" style="edgeStyle=orthogonalEdgeStyle;rounded=0;orthogonalLoop=1;jettySize=auto;html=1;" edge="1" parent="1" source="KBg-SO3lWjchXB5jgZCS-34" target="KBg-SO3lWjchXB5jgZCS-36">
          <mxGeometry relative="1" as="geometry" />
        </mxCell>
        <mxCell id="KBg-SO3lWjchXB5jgZCS-34" value="易落地" style="ellipse;whiteSpace=wrap;html=1;" vertex="1" parent="1">
          <mxGeometry x="-120" y="100" width="120" height="60" as="geometry" />
        </mxCell>
        <mxCell id="KBg-SO3lWjchXB5jgZCS-35" value="" style="endArrow=classic;html=1;rounded=0;entryX=1;entryY=0.5;entryDx=0;entryDy=0;" edge="1" parent="1" target="KBg-SO3lWjchXB5jgZCS-34">
          <mxGeometry width="50" height="50" relative="1" as="geometry">
            <mxPoint x="60" y="280" as="sourcePoint" />
            <mxPoint x="100" y="130" as="targetPoint" />
            <Array as="points">
              <mxPoint x="60" y="130" />
            </Array>
          </mxGeometry>
        </mxCell>
        <mxCell id="KBg-SO3lWjchXB5jgZCS-36" value="易部署，简单高效" style="whiteSpace=wrap;html=1;" vertex="1" parent="1">
          <mxGeometry x="-290" y="110" width="120" height="40" as="geometry" />
        </mxCell>
        <mxCell id="KBg-SO3lWjchXB5jgZCS-38" value="系统本身非常轻便，部署简单，性能高效，可以部署在云上商用" style="text;html=1;strokeColor=none;fillColor=none;align=center;verticalAlign=middle;whiteSpace=wrap;rounded=0;" vertex="1" parent="1">
          <mxGeometry x="-499" y="115" width="172" height="30" as="geometry" />
        </mxCell>
        <mxCell id="KBg-SO3lWjchXB5jgZCS-39" value="与现有医疗设备兼容" style="rounded=0;whiteSpace=wrap;html=1;" vertex="1" parent="1">
          <mxGeometry x="-290" y="50" width="120" height="40" as="geometry" />
        </mxCell>
        <mxCell id="KBg-SO3lWjchXB5jgZCS-40" value="" style="endArrow=classic;html=1;rounded=0;entryX=1;entryY=0.5;entryDx=0;entryDy=0;" edge="1" parent="1" target="KBg-SO3lWjchXB5jgZCS-39">
          <mxGeometry width="50" height="50" relative="1" as="geometry">
            <mxPoint x="-140" y="130" as="sourcePoint" />
            <mxPoint x="-110" y="30" as="targetPoint" />
            <Array as="points">
              <mxPoint x="-140" y="70" />
            </Array>
          </mxGeometry>
        </mxCell>
        <mxCell id="KBg-SO3lWjchXB5jgZCS-41" value="不需要重新打造新的设备，可以直接利用现有设备，非常容易落地" style="text;html=1;strokeColor=none;fillColor=none;align=center;verticalAlign=middle;whiteSpace=wrap;rounded=0;" vertex="1" parent="1">
          <mxGeometry x="-507.5" y="55" width="187" height="30" as="geometry" />
        </mxCell>
        <mxCell id="KBg-SO3lWjchXB5jgZCS-42" value="用户体验好" style="rounded=0;whiteSpace=wrap;html=1;" vertex="1" parent="1">
          <mxGeometry x="-290" y="170" width="120" height="40" as="geometry" />
        </mxCell>
        <mxCell id="KBg-SO3lWjchXB5jgZCS-43" value="" style="endArrow=classic;html=1;rounded=0;entryX=1;entryY=0.5;entryDx=0;entryDy=0;" edge="1" parent="1" target="KBg-SO3lWjchXB5jgZCS-42">
          <mxGeometry width="50" height="50" relative="1" as="geometry">
            <mxPoint x="-140" y="130" as="sourcePoint" />
            <mxPoint x="-90" y="150" as="targetPoint" />
            <Array as="points">
              <mxPoint x="-140" y="190" />
            </Array>
          </mxGeometry>
        </mxCell>
        <mxCell id="KBg-SO3lWjchXB5jgZCS-44" value="系统操作简单，非常容易上手，在保证病人生命安全的同时可以最大可能保证医生的休息，用户体验好" style="text;html=1;strokeColor=none;fillColor=none;align=center;verticalAlign=middle;whiteSpace=wrap;rounded=0;" vertex="1" parent="1">
          <mxGeometry x="-507.5" y="170" width="190" height="30" as="geometry" />
        </mxCell>
        <mxCell id="KBg-SO3lWjchXB5jgZCS-48" value="" style="edgeStyle=orthogonalEdgeStyle;rounded=0;orthogonalLoop=1;jettySize=auto;html=1;" edge="1" parent="1" source="KBg-SO3lWjchXB5jgZCS-45" target="KBg-SO3lWjchXB5jgZCS-47">
          <mxGeometry relative="1" as="geometry" />
        </mxCell>
        <mxCell id="KBg-SO3lWjchXB5jgZCS-45" value="安全可靠" style="ellipse;whiteSpace=wrap;html=1;" vertex="1" parent="1">
          <mxGeometry x="-110" y="400" width="120" height="60" as="geometry" />
        </mxCell>
        <mxCell id="KBg-SO3lWjchXB5jgZCS-46" value="" style="endArrow=classic;html=1;rounded=0;entryX=1;entryY=0.5;entryDx=0;entryDy=0;" edge="1" parent="1" target="KBg-SO3lWjchXB5jgZCS-45">
          <mxGeometry width="50" height="50" relative="1" as="geometry">
            <mxPoint x="60" y="280" as="sourcePoint" />
            <mxPoint x="180" y="410" as="targetPoint" />
            <Array as="points">
              <mxPoint x="60" y="430" />
            </Array>
          </mxGeometry>
        </mxCell>
        <mxCell id="KBg-SO3lWjchXB5jgZCS-47" value="传输安全" style="whiteSpace=wrap;html=1;" vertex="1" parent="1">
          <mxGeometry x="-290" y="370" width="120" height="40" as="geometry" />
        </mxCell>
        <mxCell id="KBg-SO3lWjchXB5jgZCS-49" value="存储安全" style="rounded=0;whiteSpace=wrap;html=1;" vertex="1" parent="1">
          <mxGeometry x="-290" y="430" width="120" height="40" as="geometry" />
        </mxCell>
        <mxCell id="KBg-SO3lWjchXB5jgZCS-50" value="" style="endArrow=classic;html=1;rounded=0;entryX=1;entryY=0.5;entryDx=0;entryDy=0;" edge="1" parent="1" target="KBg-SO3lWjchXB5jgZCS-49">
          <mxGeometry width="50" height="50" relative="1" as="geometry">
            <mxPoint x="-140" y="430" as="sourcePoint" />
            <mxPoint x="-100" y="490" as="targetPoint" />
            <Array as="points">
              <mxPoint x="-140" y="450" />
            </Array>
          </mxGeometry>
        </mxCell>
        <mxCell id="KBg-SO3lWjchXB5jgZCS-51" value="安全防护体系" style="text;html=1;strokeColor=none;fillColor=none;align=center;verticalAlign=middle;whiteSpace=wrap;rounded=0;" vertex="1" parent="1">
          <mxGeometry x="-560" y="435" width="90" height="30" as="geometry" />
        </mxCell>
        <mxCell id="KBg-SO3lWjchXB5jgZCS-52" value="容灾备份" style="rounded=0;whiteSpace=wrap;html=1;" vertex="1" parent="1">
          <mxGeometry x="-290" y="565" width="120" height="40" as="geometry" />
        </mxCell>
        <mxCell id="KBg-SO3lWjchXB5jgZCS-53" value="数据存储在云上，数据不易丢失，易备份，容灾性能好，具有较高的可运维性" style="text;html=1;strokeColor=none;fillColor=none;align=center;verticalAlign=middle;whiteSpace=wrap;rounded=0;" vertex="1" parent="1">
          <mxGeometry x="-470" y="570" width="152.5" height="30" as="geometry" />
        </mxCell>
        <mxCell id="KBg-SO3lWjchXB5jgZCS-54" value="展示安全" style="rounded=0;whiteSpace=wrap;html=1;" vertex="1" parent="1">
          <mxGeometry x="-290" y="490" width="120" height="40" as="geometry" />
        </mxCell>
        <mxCell id="KBg-SO3lWjchXB5jgZCS-55" value="" style="endArrow=classic;html=1;rounded=0;entryX=1;entryY=0.5;entryDx=0;entryDy=0;" edge="1" parent="1" target="KBg-SO3lWjchXB5jgZCS-54">
          <mxGeometry width="50" height="50" relative="1" as="geometry">
            <mxPoint x="-140" y="450" as="sourcePoint" />
            <mxPoint x="-90" y="490" as="targetPoint" />
            <Array as="points">
              <mxPoint x="-140" y="510" />
            </Array>
          </mxGeometry>
        </mxCell>
        <mxCell id="KBg-SO3lWjchXB5jgZCS-56" value="加密传输" style="text;html=1;strokeColor=none;fillColor=none;align=center;verticalAlign=middle;whiteSpace=wrap;rounded=0;" vertex="1" parent="1">
          <mxGeometry x="-380" y="375" width="60" height="30" as="geometry" />
        </mxCell>
        <mxCell id="KBg-SO3lWjchXB5jgZCS-57" value="加密存储，审计" style="text;html=1;strokeColor=none;fillColor=none;align=center;verticalAlign=middle;whiteSpace=wrap;rounded=0;" vertex="1" parent="1">
          <mxGeometry x="-398" y="440" width="90" height="30" as="geometry" />
        </mxCell>
        <mxCell id="KBg-SO3lWjchXB5jgZCS-58" value="授权，访问控制" style="text;html=1;strokeColor=none;fillColor=none;align=center;verticalAlign=middle;whiteSpace=wrap;rounded=0;" vertex="1" parent="1">
          <mxGeometry x="-398" y="495" width="90" height="30" as="geometry" />
        </mxCell>
        <mxCell id="KBg-SO3lWjchXB5jgZCS-59" value="" style="strokeWidth=2;html=1;shape=mxgraph.flowchart.annotation_2;align=left;labelPosition=right;pointerEvents=1;" vertex="1" parent="1">
          <mxGeometry x="-470" y="390" width="50" height="120" as="geometry" />
        </mxCell>
        <mxCell id="KBg-SO3lWjchXB5jgZCS-60" value="" style="endArrow=classic;html=1;rounded=0;entryX=1;entryY=0.5;entryDx=0;entryDy=0;" edge="1" parent="1" target="KBg-SO3lWjchXB5jgZCS-52">
          <mxGeometry width="50" height="50" relative="1" as="geometry">
            <mxPoint x="-140" y="510" as="sourcePoint" />
            <mxPoint x="-10" y="580" as="targetPoint" />
            <Array as="points">
              <mxPoint x="-140" y="585" />
            </Array>
          </mxGeometry>
        </mxCell>
      </root>
    </mxGraphModel>
  </diagram>
</mxfile>
